<?xml version="1.0" encoding="UTF-8" standalone="no"?>
<svg width="124px" height="164px" viewBox="0 0 124 164" version="1.1" xmlns="http://www.w3.org/2000/svg" xmlns:xlink="http://www.w3.org/1999/xlink" xmlns:sketch="http://www.bohemiancoding.com/sketch/ns">
    <!-- Generator: Sketch 3.5.2 (25235) - http://www.bohemiancoding.com/sketch -->
    <title>Logo</title>
    <desc>Created with Sketch.</desc>
    <defs></defs>
    <g id="Page-1" stroke="none" stroke-width="1" fill="none" fill-rule="evenodd" sketch:type="MSPage">
        <g id="Logo" sketch:type="MSArtboardGroup">
            <text id="JUDGE" sketch:type="MSTextLayer" font-family=".Helvetica Neue DeskInterface" font-size="18" font-weight="normal" letter-spacing="5.0999999" fill="#000000">
                <tspan x="17" y="147">JUDG</tspan>
                <tspan x="86.8634143" y="147">E</tspan>
            </text>
            <g id="Group" sketch:type="MSLayerGroup" transform="translate(20.000000, 10.000000)">
                <path d="M15.1024602,73.1683195 C15.9642582,79.6609337 18.3284671,84.7836557 22.195122,88.5365854 C27.1707566,93.3658778 34.3414166,95.7804878 43.7073171,95.7804878 C52.5854102,95.7804878 59.3414402,93.3658778 63.9756098,88.5365854 C68.6097793,83.7072929 70.9268293,76.6098029 70.9268293,67.2439024 L70.9268293,0.512195122 L84.8292683,0.512195122 L84.8292683,67.2439024 C84.8292683,80.6098229 81.2683283,90.6341129 74.1463415,97.3170732 C67.0243546,104.000033 56.8781146,107.341463 43.7073171,107.341463 C30.2438351,107.341463 19.7317451,104.146373 12.1707317,97.7560976 C4.84480204,91.5645054 1.06800313,81.8239789 0.840231814,68.5342406 L15.1024602,73.1683195 Z M14.7317073,60.4303079 L14.7317073,0.512195122 L0.829268293,0.512195122 L0.829268293,55.9131316 L14.7317073,60.4303079 Z" id="U" fill="#124272" sketch:type="MSShapeGroup"></path>
                <path d="M15,60.5174815 L15,0 L0,0 L0,55.643686 L15,60.5174815 Z" id="Rectangle-108" fill="#D8D8D8" sketch:type="MSShapeGroup"></path>
            </g>
        </g>
    </g>
</svg>